<svg xmlns:xlink="http://www.w3.org/1999/xlink" xmlns="http://www.w3.org/2000/svg" width="42" height="36" viewBox="-8 -7 42 36" stroke-width="2" stroke-linecap="round" stroke-linejoin="round" class="fill-gray-100 stroke-gray-400/70 hover:fill-gray-200 hover:stroke-gray-400 dark:fill-gray-400/20 dark:stroke-gray-500 dark:hover:fill-gray-400/30 dark:hover:stroke-gray-400"><path d="M15 19h6a2 2 0 0 0 2-2V5a2 2 0 0 0-2-2H4a1 1 0 0 0-1 1" fill="none" stroke-opacity="0.7" stroke="#94A3B8" stroke-width="2px"></path><path d="M12 17V9a2 2 0 0 0-2-2H5a2 2 0 0 0-2 2v8a2 2 0 0 0 2 2h5a2 2 0 0 0 2-2Z" stroke-opacity="0.7" stroke="#94A3B8" fill="#F1F5F9" stroke-width="2px"></path></svg>